<svg version="1.2" xmlns="http://www.w3.org/2000/svg" viewBox="0 0 309 127" width="309" height="127">
	<title>logo_film_finder-svg</title>
	<defs>
		<clipPath clipPathUnits="userSpaceOnUse" id="cp1">
			<path d="m8 44h108v63.86h-108z"/>
		</clipPath>
		<clipPath clipPathUnits="userSpaceOnUse" id="cp2">
			<path d="m6.53 12.61h109.47v24.39h-109.47z"/>
		</clipPath>
		<clipPath clipPathUnits="userSpaceOnUse" id="cp3">
			<path d="m7 48h109.03v1h-109.03z"/>
		</clipPath>
	</defs>
	<style>
		.s0 { fill: #000000 } 
		.s1 { fill: #ffffff } 
		.s2 { fill: #ffffff;stroke: #ffffff;stroke-width: .6 } 
		.s3 { fill: none;stroke: #cccccc;stroke-width: .4 } 
		.s4 { fill: none;stroke: #ffffff;stroke-width: .6 } 
	</style>
	<g id="Layer">
		<g id="Layer">
			<g id="Layer">
				<path id="Layer" class="s0" d="m131.3 59.1v-19.2h15v4.4h-9.3v3.8h8.6v4.4h-8.6v6.6z"/>
			</g>
		</g>
	</g>
	<g id="Layer">
		<g id="Layer">
			<g id="Layer">
				<path id="Layer" class="s0" d="m160.7 59.1v-19.2h5.7v19.2z"/>
			</g>
		</g>
	</g>
	<g id="Layer">
		<g id="Layer">
			<g id="Layer">
				<path id="Layer" class="s0" d="m182.1 59.1v-19.2h5.7v14.5h8v4.7z"/>
			</g>
		</g>
	</g>
	<g id="Layer">
		<g id="Layer">
			<g id="Layer">
				<path id="Layer" class="s0" d="m210.2 59.1v-19.2h6.1l5.2 10.7 5.1-10.7h6.1v19.2h-5v-11.4l-4.4 9.5h-3.7l-4.4-9.5v11.4z"/>
			</g>
		</g>
	</g>
	<g id="Layer">
		<g id="Layer">
			<g id="Layer">
			</g>
		</g>
	</g>
	<g id="Layer">
		<g id="Layer">
			<g id="Layer">
				<path id="Layer" class="s0" d="m131.3 100.4v-19.3h15v4.4h-9.3v3.9h8.6v4.4h-8.6v6.6z"/>
			</g>
		</g>
	</g>
	<g id="Layer">
		<g id="Layer">
			<g id="Layer">
				<path id="Layer" class="s0" d="m160.7 100.4v-19.3h5.7v19.3z"/>
			</g>
		</g>
	</g>
	<g id="Layer">
		<g id="Layer">
			<g id="Layer">
				<path id="Layer" class="s0" d="m195.1 91.9v-10.8h5.2v19.3h-4.8l-8.2-10.7v10.7h-5.2v-19.3h4.8z"/>
			</g>
		</g>
	</g>
	<g id="Layer">
		<g id="Layer">
			<g id="Layer">
				<path id="Layer" fill-rule="evenodd" class="s0" d="m224.4 81.1q3 0 5.4 1.3 2.3 1.1 3.6 3.3 1.3 2.2 1.3 5.1 0 2.8-1.3 5-1.3 2.2-3.7 3.4-2.4 1.2-5.5 1.2h-8.2v-19.3zm0.1 14.8q2 0 3.2-1.4 1.2-1.4 1.2-3.7 0-2.3-1.3-3.7-1.3-1.5-3.4-1.5h-2.6v10.3z"/>
			</g>
		</g>
	</g>
	<g id="Layer">
		<g id="Layer">
			<g id="Layer">
				<path id="Layer" class="s0" d="m249.3 100.4v-19.3h15.7v4.4h-10v3.1h9v4.3h-9v3.1h10.2v4.4z"/>
			</g>
		</g>
	</g>
	<g id="Layer">
		<g id="Layer">
			<g id="Layer">
				<path id="Layer" fill-rule="evenodd" class="s0" d="m298.2 100.4h-6.5l-2.6-5.2h-3v5.2h-5.7v-19.3h9q3.8 0 6 1.8 2.1 1.8 2.1 5.1 0 2.1-0.8 3.6-0.9 1.6-2.5 2.5zm-12-14.8v5.2h3.3q1.2 0 1.9-0.7 0.8-0.7 0.8-1.9 0-1.3-0.8-2-0.7-0.6-1.9-0.6z"/>
			</g>
		</g>
	</g>
	<path id="Layer" fill-rule="evenodd" class="s0" d="m8 28.2v16q0 0.5 0.1 0.9 0.2 0.5 0.6 0.8 0.3 0.3 0.7 0.5 0.5 0.2 0.9 0.2h6.6q0.5 0 0.9-0.2 0.4-0.2 0.8-0.5 0.3-0.3 0.5-0.8 0.2-0.4 0.2-0.9v-16q0-0.4-0.2-0.9-0.2-0.4-0.5-0.7-0.4-0.4-0.8-0.5-0.4-0.2-0.9-0.2h-6.6q-0.4 0-0.9 0.2-0.4 0.1-0.7 0.5-0.4 0.3-0.6 0.7-0.1 0.5-0.1 0.9z"/>
	<g id="Clip-Path" clip-path="url(#cp1)">
		<g id="Layer">
			<path id="Layer" fill-rule="evenodd" class="s0" d="m10.4 44.1h103q0.4 0 0.8 0.1 0.4 0.2 0.7 0.5 0.3 0.3 0.4 0.6 0.2 0.4 0.2 0.8v59.7q0 0.4-0.2 0.8-0.1 0.4-0.4 0.7-0.3 0.2-0.7 0.4-0.4 0.2-0.8 0.2h-103q-0.4 0-0.8-0.2-0.4-0.2-0.7-0.4-0.2-0.3-0.4-0.7-0.2-0.4-0.2-0.8v-59.7q0-0.4 0.2-0.8 0.2-0.3 0.4-0.6 0.3-0.3 0.7-0.5 0.4-0.1 0.8-0.1z"/>
		</g>
	</g>
	<path id="Layer" fill-rule="evenodd" class="s0" d="m7.8 36.9h108.2v11.2h-108.2z"/>
	<path id="Layer" fill-rule="evenodd" class="s1" d="m19.3 47.5h10.4l5.4-10h-10.3z"/>
	<path id="Layer" fill-rule="evenodd" class="s1" d="m45.8 47.5h10.3l5.5-10h-10.4z"/>
	<path id="Layer" fill-rule="evenodd" class="s1" d="m72.3 47.5h10.3l5.5-10h-10.4z"/>
	<path id="Layer" fill-rule="evenodd" class="s1" d="m98.8 47.5h10.3l5.5-10h-10.4z"/>
	<g id="Clip-Path" clip-path="url(#cp2)">
		<g id="Layer">
			<path id="Layer" fill-rule="evenodd" class="s0" d="m113.9 12.6l-107.3 13.2 1.4 11.1 107.3-13.2z"/>
		</g>
	</g>
	<path id="Layer" fill-rule="evenodd" class="s1" d="m113.8 23.3l-10.2 1.2-6.7-9.2 10.3-1.2z"/>
	<path id="Layer" fill-rule="evenodd" class="s1" d="m87.5 26.5l-10.2 1.3-6.7-9.2 10.3-1.3z"/>
	<path id="Layer" fill-rule="evenodd" class="s1" d="m61.3 29.8l-10.3 1.2-6.7-9.2 10.3-1.3z"/>
	<path id="Layer" fill-rule="evenodd" class="s1" d="m35 33l-10.3 1.3-6.6-9.2 10.2-1.3z"/>
	<path id="Layer" fill-rule="evenodd" class="s2" d="m15.8 30.1q0.1 0.4-0.1 0.8-0.1 0.5-0.4 0.8-0.2 0.4-0.6 0.6-0.4 0.2-0.9 0.3-0.4 0-0.8-0.1-0.5-0.1-0.8-0.4-0.4-0.3-0.6-0.7-0.2-0.3-0.3-0.8 0-0.4 0.1-0.9 0.1-0.4 0.4-0.8 0.2-0.3 0.6-0.5 0.4-0.2 0.9-0.3 0.4-0.1 0.9 0.1 0.4 0.1 0.7 0.4 0.4 0.2 0.6 0.6 0.2 0.4 0.3 0.9z"/>
	<g id="Clip-Path" clip-path="url(#cp3)">
		<g id="Layer">
			<path id="Layer" class="s3" d="m7.8 48.1h108.2"/>
		</g>
	</g>
	<path id="Layer" class="s4" d="m12.7 89.4h98.5"/>
	<path id="Layer" class="s4" d="m41.6 104.3v-14.7"/>
	<path id="Layer" class="s4" d="m82.2 104.3v-14.7"/>
	<path id="Layer" class="s4" d="m12.7 74.7h98.5"/>
	<path id="Layer" class="s4" d="m12.7 60h98.5"/>
</svg>